<svg width="6" height="12" viewBox="0 0 6 12" fill="none" xmlns="http://www.w3.org/2000/svg">
<g id="Frame 124">
<path id="Vector" d="M1.2875 1.07074L5.85104 5.62074C5.90521 5.67491 5.94349 5.73359 5.96588 5.79679C5.98863 5.85998 6 5.92769 6 5.99991C6 6.07213 5.98863 6.13984 5.96588 6.20304C5.94349 6.26623 5.90521 6.32491 5.85104 6.37908L1.2875 10.9426C1.16111 11.069 1.00313 11.1322 0.813542 11.1322C0.623959 11.1322 0.461459 11.0645 0.326042 10.9291C0.190626 10.7937 0.122917 10.6357 0.122917 10.4551C0.122917 10.2746 0.190626 10.1166 0.326042 9.98116L4.30729 5.99991L0.326043 2.01866C0.199654 1.89227 0.13646 1.73663 0.13646 1.55174C0.13646 1.36649 0.204168 1.20616 0.339585 1.07074C0.475001 0.935326 0.632988 0.867618 0.813543 0.867618C0.994099 0.867618 1.15208 0.935326 1.2875 1.07074Z" fill="#858585"/>
</g>
</svg>
