<svg width="33" height="33" viewBox="0 0 33 33" fill="none" xmlns="http://www.w3.org/2000/svg">
<g clip-path="url(#clip0_2038_1539)">
<path d="M32.5 16.832C32.5 7.99553 25.3365 0.832031 16.5 0.832031C7.6635 0.832031 0.5 7.99553 0.5 16.832C0.5 24.818 6.351 31.4374 14 32.6377V21.457H9.9375V16.832H14V13.307C14 9.29703 16.3888 7.08203 20.0435 7.08203C21.794 7.08203 23.625 7.39453 23.625 7.39453V11.332H21.6075C19.6199 11.332 19 12.5654 19 13.8308V16.832H23.4375L22.7281 21.457H19V32.6377C26.649 31.4374 32.5 24.8182 32.5 16.832Z" fill="#1877F2"/>
<path d="M22.7281 21.457L23.4375 16.832H19V13.8308C19 12.5653 19.6199 11.332 21.6075 11.332H23.625V7.39453C23.625 7.39453 21.794 7.08203 20.0434 7.08203C16.3888 7.08203 14 9.29703 14 13.307V16.832H9.9375V21.457H14V32.6377C14.827 32.7672 15.6629 32.8322 16.5 32.832C17.3371 32.8322 18.173 32.7672 19 32.6377V21.457H22.7281Z" fill="white"/>
</g>
<defs>
<clipPath id="clip0_2038_1539">
<rect width="32" height="32" fill="white" transform="translate(0.5 0.832031)"/>
</clipPath>
</defs>
</svg>
