<svg width="23" height="18" viewBox="0 0 23 18" fill="none" xmlns="http://www.w3.org/2000/svg">
<path id="Vector" fill-rule="evenodd" clip-rule="evenodd" d="M4.28041 0.186904C4.16043 0.0672159 3.99788 0 3.82841 0C3.65894 0 3.49639 0.0672159 3.37641 0.186904L0.176411 3.3869C0.0613438 3.5078 -0.00194242 3.66887 4.54522e-05 3.83576C0.00203333 4.00265 0.0691381 4.16216 0.187052 4.28028C0.304965 4.39841 0.464359 4.46579 0.631246 4.46808C0.798133 4.47036 0.95931 4.40736 1.08041 4.2925L3.18921 2.1853V15.0941L1.08041 12.9869C0.95931 12.8721 0.798133 12.8091 0.631246 12.8113C0.464359 12.8136 0.304965 12.881 0.187052 12.9991C0.0691381 13.1172 0.00203333 13.2768 4.54522e-05 13.4436C-0.00194242 13.6105 0.0613438 13.7716 0.176411 13.8925L3.37641 17.0925C3.49639 17.2122 3.65894 17.2794 3.82841 17.2794C3.99788 17.2794 4.16043 17.2122 4.28041 17.0925L7.48041 13.8925C7.59548 13.7716 7.65876 13.6105 7.65678 13.4436C7.65479 13.2768 7.58768 13.1172 7.46977 12.9991C7.35186 12.881 7.19246 12.8136 7.02558 12.8113C6.85869 12.8091 6.69751 12.8721 6.57641 12.9869L4.46761 15.0941V2.1853L6.57641 4.2925C6.69751 4.40736 6.85869 4.47036 7.02558 4.46808C7.19246 4.46579 7.35186 4.39841 7.46977 4.28028C7.58768 4.16216 7.65479 4.00265 7.65678 3.83576C7.65876 3.66887 7.59548 3.5078 7.48041 3.3869L4.28041 0.186904ZM16.6292 1.0397C16.7936 1.03977 16.954 1.0905 17.0886 1.18497C17.2231 1.27945 17.3253 1.41309 17.3812 1.5677L22.1812 14.8797C22.2465 15.0775 22.2321 15.2929 22.141 15.4802C22.05 15.6675 21.8895 15.8119 21.6936 15.8827C21.4978 15.9536 21.282 15.9452 21.0922 15.8595C20.9024 15.7738 20.7536 15.6175 20.6772 15.4237L19.106 11.0653H14.1524L12.5812 15.4221C12.5049 15.6159 12.356 15.7722 12.1662 15.8579C11.9764 15.9436 11.7606 15.952 11.5648 15.8811C11.369 15.8103 11.2085 15.6659 11.1174 15.4786C11.0264 15.2913 11.0119 15.0759 11.0772 14.8781L15.8772 1.5677C15.9331 1.41309 16.0353 1.27945 16.1698 1.18497C16.3044 1.0905 16.4648 1.03977 16.6292 1.0397ZM16.6292 4.1981L18.6148 9.7053H14.6452L16.6292 4.1981Z" fill="black"/>
</svg>
