<svg width="33" height="33" viewBox="0 0 33 33" fill="none" xmlns="http://www.w3.org/2000/svg">
<g clip-path="url(#clip0_2038_1532)">
<path d="M25 0.832031H8C3.85786 0.832031 0.5 4.1899 0.5 8.33203V25.332C0.5 29.4742 3.85786 32.832 8 32.832H25C29.1421 32.832 32.5 29.4742 32.5 25.332V8.33203C32.5 4.1899 29.1421 0.832031 25 0.832031Z" fill="url(#paint0_radial_2038_1532)"/>
<path d="M25 0.832031H8C3.85786 0.832031 0.5 4.1899 0.5 8.33203V25.332C0.5 29.4742 3.85786 32.832 8 32.832H25C29.1421 32.832 32.5 29.4742 32.5 25.332V8.33203C32.5 4.1899 29.1421 0.832031 25 0.832031Z" fill="url(#paint1_radial_2038_1532)"/>
<path d="M16.5011 4.33203C13.1064 4.33203 12.6803 4.34691 11.347 4.40753C10.0163 4.46853 9.10788 4.67916 8.31313 4.98828C7.49088 5.30753 6.7935 5.73466 6.09875 6.42966C5.40338 7.12453 4.97625 7.82191 4.656 8.64378C4.346 9.43878 4.13512 10.3475 4.07525 11.6777C4.01562 13.011 4 13.4373 4 16.8322C4 20.227 4.015 20.6518 4.0755 21.985C4.13675 23.3158 4.34738 24.2242 4.65625 25.0189C4.97575 25.8412 5.40288 26.5385 6.09788 27.2333C6.7925 27.9287 7.48988 28.3568 8.3115 28.676C9.10688 28.9852 10.0154 29.1958 11.3459 29.2568C12.6792 29.3174 13.105 29.3323 16.4996 29.3323C19.8948 29.3323 20.3195 29.3174 21.6528 29.2568C22.9835 29.1958 23.8929 28.9852 24.6882 28.676C25.5101 28.3568 26.2065 27.9287 26.901 27.2333C27.5964 26.5385 28.0234 25.8412 28.3438 25.0193C28.651 24.2242 28.862 23.3155 28.9245 21.9853C28.9844 20.652 29 20.227 29 16.8322C29 13.4373 28.9844 13.0113 28.9245 11.6779C28.862 10.3472 28.651 9.43891 28.3438 8.64416C28.0234 7.82191 27.5964 7.12453 26.901 6.42966C26.2057 5.73441 25.5104 5.30728 24.6875 4.98841C23.8906 4.67916 22.9817 4.46841 21.651 4.40753C20.3176 4.34691 19.8931 4.33203 16.4972 4.33203H16.5011ZM15.3798 6.58466C15.7126 6.58416 16.084 6.58466 16.5011 6.58466C19.8388 6.58466 20.2342 6.59666 21.5522 6.65653C22.771 6.71228 23.4325 6.91591 23.8731 7.08703C24.4565 7.31353 24.8724 7.58441 25.3096 8.02203C25.7471 8.45953 26.0179 8.87616 26.245 9.45953C26.4161 9.89953 26.62 10.561 26.6755 11.7798C26.7354 13.0975 26.7484 13.4933 26.7484 16.8293C26.7484 20.1653 26.7354 20.5612 26.6755 21.8788C26.6198 23.0975 26.4161 23.759 26.245 24.1992C26.0185 24.7825 25.7471 25.1979 25.3096 25.6352C24.8721 26.0727 24.4568 26.3434 23.8731 26.57C23.433 26.7419 22.771 26.945 21.5522 27.0008C20.2345 27.0607 19.8388 27.0737 16.5011 27.0737C13.1634 27.0737 12.7677 27.0607 11.4501 27.0008C10.2314 26.9445 9.56987 26.7409 9.12887 26.5698C8.54562 26.3432 8.12887 26.0724 7.69137 25.6349C7.25387 25.1974 6.98313 24.7818 6.756 24.1982C6.58488 23.758 6.381 23.0965 6.3255 21.8778C6.26563 20.56 6.25362 20.1643 6.25362 16.8262C6.25362 13.488 6.26563 13.0944 6.3255 11.7767C6.38125 10.5579 6.58488 9.89641 6.756 9.45578C6.98263 8.87241 7.25388 8.45578 7.6915 8.01828C8.12913 7.58078 8.54562 7.30991 9.129 7.08291C9.56962 6.91103 10.2314 6.70791 11.4501 6.65191C12.6032 6.59978 13.0501 6.58416 15.3798 6.58153V6.58466ZM23.1736 8.66016C22.3455 8.66016 21.6736 9.33141 21.6736 10.1597C21.6736 10.9878 22.3455 11.6597 23.1736 11.6597C24.0018 11.6597 24.6736 10.9878 24.6736 10.1597C24.6736 9.33153 24.0018 8.65966 23.1736 8.65966V8.66016ZM16.5011 10.4128C12.9561 10.4128 10.0819 13.287 10.0819 16.8322C10.0819 20.3773 12.9561 23.2502 16.5011 23.2502C20.0463 23.2502 22.9195 20.3773 22.9195 16.8322C22.9195 13.2872 20.046 10.4128 16.5009 10.4128H16.5011ZM16.5011 12.6654C18.8023 12.6654 20.6679 14.5308 20.6679 16.8322C20.6679 19.1333 18.8023 20.9989 16.5011 20.9989C14.2 20.9989 12.3345 19.1333 12.3345 16.8322C12.3345 14.5308 14.1999 12.6654 16.5011 12.6654Z" fill="white"/>
</g>
<defs>
<radialGradient id="paint0_radial_2038_1532" cx="0" cy="0" r="1" gradientUnits="userSpaceOnUse" gradientTransform="translate(9 35.2967) rotate(-90) scale(31.7144 29.4969)">
<stop stop-color="#FFDD55"/>
<stop offset="0.1" stop-color="#FFDD55"/>
<stop offset="0.5" stop-color="#FF543E"/>
<stop offset="1" stop-color="#C837AB"/>
</radialGradient>
<radialGradient id="paint1_radial_2038_1532" cx="0" cy="0" r="1" gradientUnits="userSpaceOnUse" gradientTransform="translate(-4.86012 3.13716) rotate(78.681) scale(14.1765 58.436)">
<stop stop-color="#3771C8"/>
<stop offset="0.128" stop-color="#3771C8"/>
<stop offset="1" stop-color="#6600FF" stop-opacity="0"/>
</radialGradient>
<clipPath id="clip0_2038_1532">
<rect width="32" height="32" fill="white" transform="translate(0.5 0.832031)"/>
</clipPath>
</defs>
</svg>
