<svg width="33" height="33" viewBox="0 0 33 33" fill="none" xmlns="http://www.w3.org/2000/svg">
<g clip-path="url(#clip0_2038_1548)">
<path d="M29.5 1.70702H3.5C2.91008 1.70102 2.34187 1.92929 1.92005 2.34173C1.49823 2.75418 1.25725 3.31712 1.25 3.90702V30.012C1.25856 30.6011 1.50012 31.1627 1.92179 31.5741C2.34347 31.9855 2.91093 32.213 3.5 32.207H29.5C30.09 32.2117 30.6578 31.9827 31.0794 31.57C31.501 31.1573 31.7421 30.5945 31.75 30.0045V3.89952C31.7395 3.31135 31.4972 2.75109 31.0759 2.34054C30.6546 1.92999 30.0883 1.70232 29.5 1.70702Z" fill="#0076B2"/>
<path d="M5.76503 13.1395H10.2925V27.707H5.76503V13.1395ZM8.03003 5.88953C8.54931 5.88953 9.05693 6.04354 9.48866 6.33209C9.92039 6.62064 10.2568 7.03076 10.4555 7.51056C10.6541 7.99036 10.7059 8.51829 10.6044 9.02756C10.5029 9.53683 10.2527 10.0046 9.8853 10.3716C9.51794 10.7386 9.04997 10.9884 8.54061 11.0894C8.03124 11.1904 7.50337 11.1381 7.02375 10.939C6.54414 10.7399 6.13434 10.4031 5.84621 9.97108C5.55807 9.53907 5.40454 9.03131 5.40503 8.51203C5.40569 7.81627 5.68255 7.14923 6.17476 6.65749C6.66697 6.16574 7.33427 5.88953 8.03003 5.88953ZM13.1325 13.1395H17.4725V15.1395H17.5325C18.1375 13.9945 19.6125 12.787 21.815 12.787C26.4 12.777 27.25 15.7945 27.25 19.707V27.707H22.7225V20.6195C22.7225 18.932 22.6925 16.7595 20.37 16.7595C18.0475 16.7595 17.6525 18.5995 17.6525 20.5095V27.707H13.1325V13.1395Z" fill="white"/>
</g>
<defs>
<clipPath id="clip0_2038_1548">
<rect width="32" height="32" fill="white" transform="translate(0.5 0.957031)"/>
</clipPath>
</defs>
</svg>
