<svg width="33" height="27" viewBox="0 0 33 27" fill="none" xmlns="http://www.w3.org/2000/svg">
<g clip-path="url(#clip0_2038_1544)">
<path d="M32.5 4.01331C31.3017 4.54423 30.0307 4.89268 28.7292 5.04706C30.0849 4.23456 31.1258 2.94794 31.6159 1.41494C30.3272 2.17963 28.9172 2.71843 27.447 3.00806C26.2494 1.73219 24.5432 0.934814 22.6549 0.934814C19.0291 0.934814 16.0895 3.87431 16.0895 7.49981C16.0895 8.01444 16.1476 8.51544 16.2595 8.99606C10.8032 8.72219 5.96575 6.10856 2.72762 2.13656C2.16262 3.10619 1.83888 4.23406 1.83888 5.43706C1.83888 7.71481 2.998 9.72419 4.7595 10.9016C3.71693 10.869 2.69729 10.5874 1.78575 10.0803C1.78542 10.1078 1.78529 10.1354 1.78537 10.1629C1.78537 13.3438 4.04837 15.9973 7.05162 16.6004C6.08485 16.8633 5.07079 16.9018 4.08687 16.7129C4.92225 19.3212 7.34688 21.2192 10.2196 21.2723C7.97275 23.0331 5.14188 24.0827 2.06613 24.0827C1.53613 24.0827 1.01363 24.0516 0.5 23.9909C3.40538 25.8537 6.85625 26.9406 10.5638 26.9406C22.6396 26.9406 29.243 16.9367 29.243 8.26119C29.243 7.97644 29.2367 7.69331 29.224 7.41181C30.5092 6.48256 31.6185 5.33175 32.5 4.01331Z" fill="#55ACEE"/>
</g>
<defs>
<clipPath id="clip0_2038_1544">
<rect width="32" height="26.125" fill="white" transform="translate(0.5 0.832031)"/>
</clipPath>
</defs>
</svg>
